<svg width="12" height="12" viewBox="0 0 12 12" fill="none" xmlns="http://www.w3.org/2000/svg">
<g opacity="0.5" clip-path="url(#clip0_5_716)">
<path d="M12.2525 11.963V11.9625H12.2555V7.5615C12.2555 5.4085 11.792 3.75 9.275 3.75C8.065 3.75 7.253 4.414 6.9215 5.0435H6.8865V3.951H4.5V11.9625H6.985V7.9955C6.985 6.951 7.183 5.941 8.4765 5.941C9.751 5.941 9.77 7.133 9.77 8.0625V11.963H12.2525Z" fill="#001E38"/>
<path d="M0.197998 3.98865H2.686V12.0001H0.197998V3.98865Z" fill="#001E38"/>
<path d="M1.441 0C0.6455 0 0 0.6455 0 1.441C0 2.2365 0.6455 2.8955 1.441 2.8955C2.2365 2.8955 2.882 2.2365 2.882 1.441C2.8815 0.6455 2.236 0 1.441 0V0Z" fill="#001E38"/>
</g>
<defs>
<clipPath id="clip0_5_716">
<rect width="12" height="12" fill="white"/>
</clipPath>
</defs>
</svg>
