<svg width="4484" height="4484" viewBox="0 0 4484 4484" fill="none" xmlns="http://www.w3.org/2000/svg">
<rect width="4483.79" height="4483.79" fill="white"/>
<path d="M2210.07 2138.29V1861.57H2246.39L2346.7 2069.68L2446.43 1861.57H2483.13V2138.09H2445.08V1948.81L2355.73 2138.29H2337.47L2247.92 1948.81V2138.29H2210.07Z" fill="#003474"/>
<path d="M2627.09 2144.05C2606.34 2144.05 2588.34 2139.37 2573.1 2130.02C2557.85 2120.67 2546.07 2107.8 2537.74 2091.4C2529.54 2074.87 2525.44 2055.85 2525.44 2034.33C2525.44 2012.68 2529.67 1993.65 2538.12 1977.25C2546.58 1960.73 2558.43 1947.92 2573.67 1938.82C2588.92 1929.6 2606.72 1924.99 2627.09 1924.99C2647.85 1924.99 2665.85 1929.66 2681.09 1939.01C2696.34 1948.37 2708.12 1961.24 2716.45 1977.64C2724.78 1994.04 2728.94 2012.93 2728.94 2034.33C2728.94 2055.98 2724.71 2075.06 2716.26 2091.59C2707.93 2107.99 2696.14 2120.86 2680.9 2130.22C2665.65 2139.44 2647.72 2144.05 2627.09 2144.05ZM2627.09 2106.19C2646.95 2106.19 2661.75 2099.53 2671.48 2086.21C2681.35 2072.76 2686.28 2055.46 2686.28 2034.33C2686.28 2012.68 2681.28 1995.38 2671.29 1982.44C2661.43 1969.37 2646.69 1962.84 2627.09 1962.84C2613.64 1962.84 2602.56 1965.92 2593.85 1972.07C2585.14 1978.09 2578.67 1986.48 2574.44 1997.24C2570.21 2007.87 2568.1 2020.23 2568.1 2034.33C2568.1 2056.1 2573.1 2073.53 2583.09 2086.59C2593.08 2099.66 2607.75 2106.19 2627.09 2106.19Z" fill="#003474"/>
<path d="M2853.61 2144.05C2834.26 2144.05 2817.54 2139.25 2803.45 2129.64C2789.49 2120.03 2778.66 2106.96 2770.98 2090.44C2763.42 2073.78 2759.64 2055.08 2759.64 2034.33C2759.64 2013.44 2763.48 1994.8 2771.17 1978.41C2778.85 1961.88 2789.74 1948.88 2803.84 1939.4C2818.06 1929.79 2834.9 1924.99 2854.37 1924.99C2873.98 1924.99 2890.44 1929.79 2903.76 1939.4C2917.21 1948.88 2927.33 1961.88 2934.12 1978.41C2941.04 1994.93 2944.5 2013.57 2944.5 2034.33C2944.5 2055.08 2941.04 2073.72 2934.12 2090.25C2927.2 2106.77 2917.02 2119.9 2903.57 2129.64C2890.12 2139.25 2873.46 2144.05 2853.61 2144.05ZM2859.18 2107.73C2872.37 2107.73 2883.13 2104.59 2891.46 2098.32C2899.79 2092.04 2905.87 2083.39 2909.72 2072.37C2913.56 2061.36 2915.48 2048.67 2915.48 2034.33C2915.48 2019.98 2913.5 2007.3 2909.53 1996.28C2905.68 1985.26 2899.66 1976.68 2891.46 1970.53C2883.39 1964.38 2873.08 1961.3 2860.52 1961.3C2847.2 1961.3 2836.25 1964.57 2827.66 1971.1C2819.08 1977.64 2812.68 1986.41 2808.45 1997.43C2804.35 2008.45 2802.3 2020.75 2802.3 2034.33C2802.3 2048.03 2804.35 2060.46 2808.45 2071.61C2812.68 2082.62 2818.95 2091.4 2827.28 2097.93C2835.73 2104.47 2846.37 2107.73 2859.18 2107.73ZM2915.48 2138.29V1988.98H2910.87V1861.57H2951.22V2138.29H2915.48Z" fill="#003474"/>
<path d="M3097.04 2144.05C3076.41 2144.05 3058.28 2139.57 3042.65 2130.6C3027.15 2121.5 3015.05 2108.89 3006.34 2092.74C2997.75 2076.47 2993.46 2057.64 2993.46 2036.25C2993.46 2013.57 2997.69 1993.91 3006.14 1977.25C3014.73 1960.6 3026.64 1947.72 3041.89 1938.63C3057.13 1929.53 3074.87 1924.99 3095.12 1924.99C3116.25 1924.99 3134.25 1929.92 3149.11 1939.78C3163.97 1949.52 3175.05 1963.42 3182.36 1981.48C3189.79 1999.54 3192.73 2021 3191.2 2045.86H3151.03V2031.25C3150.78 2007.17 3146.17 1989.36 3137.2 1977.83C3128.36 1966.3 3114.84 1960.54 3096.65 1960.54C3076.54 1960.54 3061.42 1966.88 3051.3 1979.56C3041.18 1992.24 3036.12 2010.56 3036.12 2034.52C3036.12 2057.32 3041.18 2075 3051.3 2087.55C3061.42 2099.98 3076.03 2106.19 3095.12 2106.19C3107.67 2106.19 3118.49 2103.38 3127.59 2097.74C3136.81 2091.97 3143.99 2083.78 3149.11 2073.14L3188.51 2085.63C3180.44 2104.21 3168.2 2118.62 3151.8 2128.87C3135.41 2138.99 3117.15 2144.05 3097.04 2144.05ZM3023.05 2045.86V2014.53H3171.21V2045.86H3023.05Z" fill="#003474"/>
<path d="M3234.31 2138.29V1930.75H3270.05V1981.1L3265.06 1974.56C3267.62 1967.9 3270.95 1961.82 3275.05 1956.31C3279.15 1950.67 3283.89 1946.06 3289.27 1942.47C3294.52 1938.63 3300.35 1935.68 3306.76 1933.63C3313.29 1931.45 3319.95 1930.17 3326.74 1929.79C3333.53 1929.28 3340.06 1929.6 3346.34 1930.75V1968.41C3339.55 1966.62 3331.99 1966.11 3323.67 1966.88C3315.47 1967.65 3307.91 1970.27 3300.99 1974.76C3294.46 1978.98 3289.27 1984.11 3285.43 1990.13C3281.71 1996.15 3279.02 2002.88 3277.35 2010.31C3275.69 2017.61 3274.86 2025.36 3274.86 2033.56V2138.29H3234.31Z" fill="#003474"/>
<path d="M3528.59 2138.29V2036.25C3528.59 2028.18 3527.89 2019.91 3526.48 2011.46C3525.2 2002.88 3522.64 1994.93 3518.79 1987.63C3515.08 1980.33 3509.76 1974.44 3502.85 1969.95C3496.06 1965.47 3487.15 1963.23 3476.13 1963.23C3468.96 1963.23 3462.17 1964.44 3455.77 1966.88C3449.36 1969.18 3443.72 1972.96 3438.85 1978.21C3434.11 1983.47 3430.34 1990.38 3427.52 1998.97C3424.83 2007.55 3423.48 2017.99 3423.48 2030.29L3398.5 2020.87C3398.5 2002.04 3402.02 1985.45 3409.07 1971.1C3416.12 1956.63 3426.24 1945.35 3439.43 1937.28C3452.63 1929.21 3468.58 1925.18 3487.28 1925.18C3501.63 1925.18 3513.67 1927.48 3523.41 1932.1C3533.14 1936.71 3541.02 1942.79 3547.04 1950.35C3553.19 1957.78 3557.87 1965.92 3561.07 1974.76C3564.27 1983.6 3566.45 1992.24 3567.6 2000.7C3568.76 2009.15 3569.33 2016.58 3569.33 2022.99V2138.29H3528.59ZM3382.74 2138.29V1930.75H3418.68V1990.71H3423.48V2138.29H3382.74Z" fill="#003474"/>
<path d="M2213.91 2573.85V2297.14H2254.07V2536H2379.36V2573.85H2213.91Z" fill="#003474"/>
<path d="M2504.04 2579.62C2483.41 2579.62 2465.28 2575.14 2449.65 2566.17C2434.15 2557.07 2422.05 2544.45 2413.33 2528.31C2404.75 2512.04 2400.46 2493.21 2400.46 2471.82C2400.46 2449.14 2404.69 2429.48 2413.14 2412.82C2421.73 2396.17 2433.64 2383.29 2448.88 2374.2C2464.13 2365.1 2481.87 2360.55 2502.11 2360.55C2523.25 2360.55 2541.25 2365.49 2556.11 2375.35C2570.97 2385.09 2582.05 2398.99 2589.36 2417.05C2596.79 2435.11 2599.73 2456.57 2598.19 2481.42H2558.03V2466.82C2557.78 2442.74 2553.16 2424.93 2544.2 2413.4C2535.36 2401.87 2521.84 2396.1 2503.65 2396.1C2483.54 2396.1 2468.42 2402.45 2458.3 2415.13C2448.18 2427.81 2443.12 2446.13 2443.12 2470.09C2443.12 2492.89 2448.18 2510.57 2458.3 2523.12C2468.42 2535.55 2483.03 2541.76 2502.11 2541.76C2514.67 2541.76 2525.49 2538.94 2534.59 2533.31C2543.81 2527.54 2550.99 2519.34 2556.11 2508.71L2595.5 2521.2C2587.43 2539.78 2575.2 2554.19 2558.8 2564.44C2542.4 2574.56 2524.15 2579.62 2504.04 2579.62ZM2430.05 2481.42V2450.1H2578.21V2481.42H2430.05Z" fill="#003474"/>
<path d="M2696.16 2579.62C2680.79 2579.62 2667.92 2576.8 2657.54 2571.16C2647.16 2565.4 2639.28 2557.84 2633.9 2548.49C2628.65 2539.01 2626.03 2528.63 2626.03 2517.36C2626.03 2506.85 2627.88 2497.63 2631.6 2489.69C2635.31 2481.74 2640.82 2475.02 2648.12 2469.51C2655.43 2463.87 2664.39 2459.33 2675.03 2455.87C2684.25 2453.18 2694.69 2450.81 2706.35 2448.76C2718.01 2446.71 2730.24 2444.79 2743.05 2442.99C2755.99 2441.2 2768.8 2439.4 2781.48 2437.61L2766.88 2445.68C2767.14 2429.41 2763.68 2417.37 2756.5 2409.56C2749.46 2401.61 2737.29 2397.64 2719.99 2397.64C2709.1 2397.64 2699.11 2400.2 2690.02 2405.33C2680.92 2410.32 2674.58 2418.65 2670.99 2430.31L2633.52 2418.78C2638.64 2400.97 2648.38 2386.82 2662.73 2376.31C2677.2 2365.81 2696.42 2360.55 2720.38 2360.55C2738.95 2360.55 2755.09 2363.76 2768.8 2370.16C2782.64 2376.44 2792.76 2386.43 2799.16 2400.14C2802.49 2406.93 2804.54 2414.1 2805.31 2421.66C2806.08 2429.22 2806.47 2437.35 2806.47 2446.07V2573.85H2770.92V2526.39L2777.83 2532.54C2769.25 2548.42 2758.3 2560.27 2744.97 2568.09C2731.78 2575.78 2715.51 2579.62 2696.16 2579.62ZM2703.27 2546.76C2714.68 2546.76 2724.48 2544.77 2732.68 2540.8C2740.87 2536.7 2747.47 2531.51 2752.47 2525.24C2757.46 2518.96 2760.73 2512.43 2762.27 2505.64C2764.45 2499.49 2765.66 2492.57 2765.92 2484.88C2766.3 2477.2 2766.5 2471.05 2766.5 2466.44L2779.56 2471.24C2766.88 2473.16 2755.35 2474.89 2744.97 2476.43C2734.6 2477.97 2725.18 2479.5 2716.73 2481.04C2708.4 2482.45 2700.97 2484.18 2694.44 2486.23C2688.93 2488.15 2683.99 2490.46 2679.64 2493.15C2675.41 2495.84 2672.02 2499.1 2669.45 2502.95C2667.02 2506.79 2665.8 2511.47 2665.8 2516.97C2665.8 2522.35 2667.15 2527.35 2669.84 2531.96C2672.53 2536.45 2676.63 2540.03 2682.14 2542.72C2687.65 2545.41 2694.69 2546.76 2703.27 2546.76Z" fill="#003474"/>
<path d="M2935.73 2579.43C2910.49 2579.43 2889.93 2573.85 2874.04 2562.71C2858.16 2551.56 2848.42 2535.87 2844.84 2515.63L2885.96 2509.29C2888.52 2520.05 2894.41 2528.57 2903.64 2534.85C2912.99 2540.99 2924.58 2544.07 2938.42 2544.07C2950.97 2544.07 2960.77 2541.51 2967.82 2536.38C2974.99 2531.26 2978.58 2524.21 2978.58 2515.24C2978.58 2509.99 2977.3 2505.76 2974.74 2502.56C2972.3 2499.23 2967.11 2496.09 2959.17 2493.15C2951.23 2490.2 2939.12 2486.55 2922.85 2482.19C2905.05 2477.58 2890.89 2472.65 2880.39 2467.4C2870.01 2462.02 2862.58 2455.8 2858.09 2448.76C2853.74 2441.58 2851.56 2432.94 2851.56 2422.81C2851.56 2410.26 2854.89 2399.31 2861.55 2389.95C2868.22 2380.6 2877.57 2373.36 2889.61 2368.24C2901.78 2363.12 2916 2360.55 2932.27 2360.55C2948.15 2360.55 2962.31 2363.05 2974.74 2368.05C2987.16 2373.04 2997.22 2380.15 3004.91 2389.38C3012.59 2398.47 3017.21 2409.17 3018.74 2421.47L2977.62 2428.96C2976.21 2418.97 2971.53 2411.09 2963.59 2405.33C2955.65 2399.56 2945.34 2396.42 2932.65 2395.91C2920.48 2395.4 2910.62 2397.45 2903.06 2402.06C2895.5 2406.54 2891.72 2412.76 2891.72 2420.7C2891.72 2425.31 2893.13 2429.22 2895.95 2432.42C2898.9 2435.63 2904.53 2438.7 2912.86 2441.65C2921.19 2444.59 2933.49 2448.12 2949.76 2452.22C2967.18 2456.7 2981.01 2461.7 2991.26 2467.2C3001.51 2472.58 3008.81 2479.05 3013.17 2486.61C3017.65 2494.04 3019.9 2503.07 3019.9 2513.71C3019.9 2534.2 3012.4 2550.28 2997.41 2561.94C2982.55 2573.6 2961.99 2579.43 2935.73 2579.43Z" fill="#003474"/>
<path d="M3066.26 2332.31V2293.3H3106.42V2332.31H3066.26ZM3066.26 2573.85V2366.32H3106.42V2573.85H3066.26Z" fill="#003474"/>
<path d="M3309.78 2573.85V2471.82C3309.78 2463.75 3309.08 2455.48 3307.67 2447.03C3306.39 2438.44 3303.83 2430.5 3299.98 2423.2C3296.27 2415.9 3290.95 2410 3284.04 2405.52C3277.25 2401.04 3268.34 2398.79 3257.32 2398.79C3250.15 2398.79 3243.36 2400.01 3236.96 2402.45C3230.55 2404.75 3224.91 2408.53 3220.04 2413.78C3215.3 2419.04 3211.53 2425.95 3208.71 2434.54C3206.02 2443.12 3204.67 2453.56 3204.67 2465.86L3179.69 2456.44C3179.69 2437.61 3183.21 2421.02 3190.26 2406.67C3197.31 2392.2 3207.43 2380.92 3220.62 2372.85C3233.82 2364.78 3249.77 2360.75 3268.47 2360.75C3282.82 2360.75 3294.86 2363.05 3304.6 2367.66C3314.33 2372.28 3322.21 2378.36 3328.23 2385.92C3334.38 2393.35 3339.06 2401.48 3342.26 2410.32C3345.46 2419.16 3347.64 2427.81 3348.79 2436.27C3349.95 2444.72 3350.52 2452.15 3350.52 2458.56V2573.85H3309.78ZM3163.93 2573.85V2366.32H3199.87V2426.27H3204.67V2573.85H3163.93Z" fill="#003474"/>
<path d="M3486.09 2671.86C3474.94 2671.86 3464.12 2670.13 3453.61 2666.67C3443.24 2663.21 3433.76 2658.09 3425.17 2651.3C3416.59 2644.63 3409.48 2636.37 3403.84 2626.51L3440.93 2607.67C3445.41 2616.51 3451.82 2622.98 3460.15 2627.08C3468.47 2631.18 3477.25 2633.23 3486.47 2633.23C3497.87 2633.23 3507.61 2631.18 3515.68 2627.08C3523.75 2623.11 3529.84 2617.09 3533.94 2609.02C3538.16 2600.95 3540.21 2590.96 3540.09 2579.04V2521.01H3544.89V2366.32H3580.44V2579.43C3580.44 2584.94 3580.25 2590.19 3579.86 2595.18C3579.48 2600.18 3578.77 2605.18 3577.75 2610.17C3574.8 2624.14 3569.17 2635.67 3560.84 2644.76C3552.64 2653.86 3542.14 2660.65 3529.32 2665.13C3516.64 2669.62 3502.23 2671.86 3486.09 2671.86ZM3483.01 2579.62C3463.67 2579.62 3446.95 2574.82 3432.86 2565.21C3418.9 2555.6 3408.07 2542.53 3400.38 2526.01C3392.83 2509.35 3389.05 2490.65 3389.05 2469.89C3389.05 2449.01 3392.89 2430.37 3400.58 2413.98C3408.26 2397.45 3419.15 2384.45 3433.24 2374.97C3447.46 2365.36 3464.31 2360.55 3483.78 2360.55C3503.38 2360.55 3519.84 2365.36 3533.17 2374.97C3546.62 2384.45 3556.74 2397.45 3563.53 2413.98C3570.45 2430.5 3573.91 2449.14 3573.91 2469.89C3573.91 2490.65 3570.45 2509.29 3563.53 2525.81C3556.61 2542.34 3546.43 2555.47 3532.98 2565.21C3519.52 2574.82 3502.87 2579.62 3483.01 2579.62ZM3488.59 2543.3C3501.78 2543.3 3512.54 2540.16 3520.87 2533.88C3529.2 2527.61 3535.28 2518.96 3539.12 2507.94C3542.97 2496.93 3544.89 2484.24 3544.89 2469.89C3544.89 2455.55 3542.9 2442.86 3538.93 2431.85C3535.09 2420.83 3529.07 2412.25 3520.87 2406.1C3512.8 2399.95 3502.49 2396.87 3489.93 2396.87C3476.61 2396.87 3465.65 2400.14 3457.07 2406.67C3448.49 2413.21 3442.08 2421.98 3437.86 2433C3433.76 2444.02 3431.71 2456.31 3431.71 2469.89C3431.71 2483.6 3433.76 2496.03 3437.86 2507.17C3442.08 2518.19 3448.36 2526.97 3456.69 2533.5C3465.14 2540.03 3475.78 2543.3 3488.59 2543.3Z" fill="#003474"/>
<path d="M1034.77 2321.83L1165.53 2630H904L1034.77 2321.83Z" fill="#2289FF"/>
<path d="M1019.41 1836.42C1156.35 1768.85 1315.41 1840.62 1374.69 1996.73L1604.85 2602.85C1467.91 2670.42 1308.84 2598.65 1249.56 2442.55L1019.41 1836.42Z" fill="url(#paint0_linear_12_61)"/>
<path d="M1458.72 1836.42C1595.66 1768.85 1754.72 1840.62 1814 1996.73L2044.16 2602.85C1907.22 2670.42 1748.15 2598.65 1688.88 2442.55L1458.72 1836.42Z" fill="#003474"/>
<defs>
<linearGradient id="paint0_linear_12_61" x1="1474.08" y1="1811" x2="1474.08" y2="2630" gradientUnits="userSpaceOnUse">
<stop stop-color="#2289FF"/>
<stop offset="1" stop-color="#003474"/>
</linearGradient>
</defs>
</svg>
