<svg width="2677" height="861" viewBox="0 0 2677 861" fill="none" xmlns="http://www.w3.org/2000/svg">
<path d="M1306.07 327.286V50.5718H1342.39L1442.7 258.684L1542.43 50.5718H1579.13V327.094H1541.08V137.814L1451.73 327.286H1433.47L1343.92 137.814V327.286H1306.07Z" fill="#003474"/>
<path d="M1723.09 333.051C1702.34 333.051 1684.34 328.375 1669.1 319.023C1653.85 309.671 1642.07 296.796 1633.74 280.398C1625.54 263.872 1621.44 244.848 1621.44 223.326C1621.44 201.676 1625.67 182.652 1634.12 166.254C1642.58 149.728 1654.43 136.917 1669.67 127.821C1684.92 118.597 1702.72 113.985 1723.09 113.985C1743.85 113.985 1761.85 118.661 1777.09 128.013C1792.34 137.365 1804.12 150.24 1812.45 166.638C1820.78 183.036 1824.94 201.932 1824.94 223.326C1824.94 244.976 1820.71 264.064 1812.26 280.59C1803.93 296.988 1792.14 309.863 1776.9 319.215C1761.65 328.439 1743.72 333.051 1723.09 333.051ZM1723.09 295.195C1742.95 295.195 1757.75 288.533 1767.48 275.21C1777.35 261.758 1782.28 244.464 1782.28 223.326C1782.28 201.676 1777.28 184.381 1767.29 171.442C1757.43 158.375 1742.69 151.841 1723.09 151.841C1709.64 151.841 1698.56 154.916 1689.85 161.065C1681.14 167.086 1674.67 175.477 1670.44 186.239C1666.21 196.872 1664.1 209.234 1664.1 223.326C1664.1 245.104 1669.1 262.527 1679.09 275.594C1689.08 288.661 1703.75 295.195 1723.09 295.195Z" fill="#003474"/>
<path d="M1949.61 333.051C1930.26 333.051 1913.54 328.247 1899.45 318.639C1885.49 309.03 1874.66 295.963 1866.98 279.437C1859.42 262.783 1855.64 244.079 1855.64 223.326C1855.64 202.444 1859.48 183.804 1867.17 167.407C1874.85 150.881 1885.74 137.878 1899.84 128.398C1914.06 118.789 1930.9 113.985 1950.37 113.985C1969.98 113.985 1986.44 118.789 1999.76 128.398C2013.21 137.878 2023.33 150.881 2030.12 167.407C2037.04 183.933 2040.5 202.572 2040.5 223.326C2040.5 244.079 2037.04 262.719 2030.12 279.245C2023.2 295.771 2013.02 308.902 1999.57 318.639C1986.12 328.247 1969.46 333.051 1949.61 333.051ZM1955.18 296.732C1968.37 296.732 1979.13 293.593 1987.46 287.316C1995.79 281.039 2001.87 272.391 2005.72 261.374C2009.56 250.357 2011.48 237.674 2011.48 223.326C2011.48 208.978 2009.5 196.295 2005.53 185.278C2001.68 174.26 1995.66 165.677 1987.46 159.528C1979.39 153.379 1969.08 150.304 1956.52 150.304C1943.2 150.304 1932.25 153.571 1923.66 160.104C1915.08 166.638 1908.68 175.413 1904.45 186.431C1900.35 197.448 1898.3 209.746 1898.3 223.326C1898.3 237.034 1900.35 249.46 1904.45 260.605C1908.68 271.623 1914.95 280.398 1923.28 286.932C1931.73 293.465 1942.37 296.732 1955.18 296.732ZM2011.48 327.286V177.976H2006.87V50.5718H2047.22V327.286H2011.48Z" fill="#003474"/>
<path d="M2193.04 333.051C2172.41 333.051 2154.28 328.567 2138.65 319.599C2123.15 310.504 2111.05 297.885 2102.34 281.743C2093.75 265.474 2089.46 246.642 2089.46 225.248C2089.46 202.572 2093.69 182.908 2102.14 166.254C2110.73 149.6 2122.64 136.725 2137.89 127.629C2153.13 118.533 2170.87 113.985 2191.12 113.985C2212.25 113.985 2230.25 118.918 2245.11 128.782C2259.97 138.518 2271.05 152.418 2278.36 170.481C2285.79 188.545 2288.73 210.003 2287.2 234.856H2247.03V220.251C2246.78 196.167 2242.17 178.36 2233.2 166.83C2224.36 155.3 2210.84 149.535 2192.65 149.535C2172.54 149.535 2157.42 155.877 2147.3 168.56C2137.18 181.242 2132.12 199.562 2132.12 223.518C2132.12 246.321 2137.18 264 2147.3 276.555C2157.42 288.981 2172.03 295.195 2191.12 295.195C2203.67 295.195 2214.49 292.376 2223.59 286.74C2232.81 280.975 2239.99 272.776 2245.11 262.143L2284.51 274.633C2276.44 293.209 2264.2 307.621 2247.8 317.87C2231.41 327.99 2213.15 333.051 2193.04 333.051ZM2119.05 234.856V203.533H2267.21V234.856H2119.05Z" fill="#003474"/>
<path d="M2330.31 327.286V119.75H2366.05V170.097L2361.06 163.563C2363.62 156.902 2366.95 150.817 2371.05 145.308C2375.15 139.671 2379.89 135.059 2385.27 131.472C2390.52 127.629 2396.35 124.682 2402.76 122.633C2409.29 120.455 2415.95 119.174 2422.74 118.789C2429.53 118.277 2436.06 118.597 2442.34 119.75V157.414C2435.55 155.621 2427.99 155.108 2419.67 155.877C2411.47 156.646 2403.91 159.272 2396.99 163.756C2390.46 167.983 2385.27 173.107 2381.43 179.129C2377.71 185.15 2375.02 191.875 2373.35 199.306C2371.69 206.608 2370.86 214.358 2370.86 222.557V327.286H2330.31Z" fill="#003474"/>
<path d="M2624.59 327.286V225.248C2624.59 217.177 2623.89 208.914 2622.48 200.459C2621.2 191.875 2618.64 183.933 2614.79 176.63C2611.08 169.328 2605.76 163.435 2598.85 158.951C2592.06 154.468 2583.15 152.226 2572.13 152.226C2564.96 152.226 2558.17 153.443 2551.77 155.877C2545.36 158.183 2539.72 161.962 2534.85 167.214C2530.11 172.467 2526.34 179.385 2523.52 187.968C2520.83 196.551 2519.48 206.992 2519.48 219.291L2494.5 209.875C2494.5 191.043 2498.02 174.453 2505.07 160.104C2512.12 145.628 2522.24 134.355 2535.43 126.284C2548.63 118.213 2564.58 114.178 2583.28 114.178C2597.63 114.178 2609.67 116.484 2619.41 121.095C2629.14 125.707 2637.02 131.792 2643.04 139.351C2649.19 146.781 2653.87 154.916 2657.07 163.756C2660.27 172.595 2662.45 181.242 2663.6 189.697C2664.76 198.153 2665.33 205.583 2665.33 211.988V327.286H2624.59ZM2478.74 327.286V119.75H2514.68V179.705H2519.48V327.286H2478.74Z" fill="#003474"/>
<path d="M1309.91 762.854V486.14H1350.07V724.998H1475.36V762.854H1309.91Z" fill="#003474"/>
<path d="M1600.04 768.619C1579.41 768.619 1561.28 764.135 1545.65 755.168C1530.15 746.072 1518.05 733.454 1509.33 717.312C1500.75 701.042 1496.46 682.21 1496.46 660.816C1496.46 638.141 1500.69 618.476 1509.14 601.822C1517.73 585.168 1529.64 572.293 1544.88 563.197C1560.13 554.102 1577.87 549.554 1598.11 549.554C1619.25 549.554 1637.25 554.486 1652.11 564.35C1666.97 574.087 1678.05 587.986 1685.36 606.05C1692.79 624.113 1695.73 645.571 1694.19 670.424H1654.03V655.82C1653.78 631.735 1649.16 613.928 1640.2 602.399C1631.36 590.869 1617.84 585.104 1599.65 585.104C1579.54 585.104 1564.42 591.445 1554.3 604.128C1544.18 616.811 1539.12 635.13 1539.12 659.087C1539.12 681.89 1544.18 699.569 1554.3 712.123C1564.42 724.55 1579.03 730.763 1598.11 730.763C1610.67 730.763 1621.49 727.945 1630.59 722.308C1639.81 716.543 1646.99 708.344 1652.11 697.711L1691.5 710.202C1683.43 728.778 1671.2 743.19 1654.8 753.438C1638.4 763.559 1620.15 768.619 1600.04 768.619ZM1526.05 670.424V639.102H1674.21V670.424H1526.05Z" fill="#003474"/>
<path d="M1792.16 768.619C1776.79 768.619 1763.92 765.801 1753.54 760.164C1743.16 754.399 1735.28 746.841 1729.9 737.489C1724.65 728.009 1722.03 717.632 1722.03 706.359C1722.03 695.854 1723.88 686.63 1727.6 678.687C1731.31 670.744 1736.82 664.019 1744.12 658.51C1751.43 652.873 1760.39 648.325 1771.03 644.867C1780.25 642.176 1790.69 639.806 1802.35 637.757C1814.01 635.707 1826.24 633.785 1839.05 631.992C1851.99 630.198 1864.8 628.405 1877.48 626.611L1862.88 634.682C1863.14 618.412 1859.68 606.37 1852.5 598.555C1845.46 590.613 1833.29 586.641 1815.99 586.641C1805.1 586.641 1795.11 589.203 1786.02 594.328C1776.92 599.324 1770.58 607.651 1766.99 619.309L1729.52 607.779C1734.64 589.972 1744.38 575.816 1758.73 565.311C1773.2 554.806 1792.42 549.554 1816.38 549.554C1834.95 549.554 1851.09 552.757 1864.8 559.162C1878.64 565.439 1888.76 575.432 1895.16 589.139C1898.49 595.929 1900.54 603.103 1901.31 610.662C1902.08 618.22 1902.47 626.355 1902.47 635.066V762.854H1866.92V715.39L1873.83 721.539C1865.25 737.425 1854.3 749.275 1840.97 757.089C1827.78 764.776 1811.51 768.619 1792.16 768.619ZM1799.27 735.759C1810.68 735.759 1820.48 733.774 1828.68 729.802C1836.87 725.703 1843.47 720.515 1848.47 714.237C1853.46 707.96 1856.73 701.426 1858.27 694.637C1860.45 688.487 1861.66 681.57 1861.92 673.883C1862.3 666.197 1862.5 660.047 1862.5 655.435L1875.56 660.24C1862.88 662.161 1851.35 663.891 1840.97 665.428C1830.6 666.965 1821.18 668.503 1812.73 670.04C1804.4 671.449 1796.97 673.179 1790.44 675.228C1784.93 677.15 1779.99 679.456 1775.64 682.146C1771.41 684.836 1768.02 688.103 1765.45 691.946C1763.02 695.79 1761.8 700.466 1761.8 705.974C1761.8 711.355 1763.15 716.351 1765.84 720.963C1768.53 725.447 1772.63 729.034 1778.14 731.724C1783.65 734.414 1790.69 735.759 1799.27 735.759Z" fill="#003474"/>
<path d="M2031.73 768.427C2006.49 768.427 1985.93 762.854 1970.04 751.709C1954.16 740.563 1944.42 724.87 1940.84 704.629L1981.96 698.288C1984.52 709.049 1990.41 717.568 1999.64 723.845C2008.99 729.995 2020.58 733.069 2034.42 733.069C2046.97 733.069 2056.77 730.507 2063.82 725.383C2070.99 720.258 2074.58 713.212 2074.58 704.245C2074.58 698.992 2073.3 694.765 2070.74 691.562C2068.3 688.231 2063.11 685.093 2055.17 682.146C2047.23 679.2 2035.12 675.548 2018.85 671.193C2001.05 666.581 1986.89 661.649 1976.39 656.396C1966.01 651.016 1958.58 644.802 1954.09 637.757C1949.74 630.582 1947.56 621.935 1947.56 611.815C1947.56 599.26 1950.89 588.307 1957.55 578.955C1964.22 569.603 1973.57 562.365 1985.61 557.24C1997.78 552.116 2012 549.554 2028.27 549.554C2044.15 549.554 2058.31 552.052 2070.74 557.048C2083.16 562.044 2093.22 569.154 2100.91 578.378C2108.59 587.474 2113.21 598.171 2114.74 610.469L2073.62 617.964C2072.21 607.971 2067.53 600.093 2059.59 594.328C2051.65 588.563 2041.34 585.424 2028.65 584.912C2016.48 584.399 2006.62 586.449 1999.06 591.061C1991.5 595.545 1987.72 601.758 1987.72 609.701C1987.72 614.313 1989.13 618.22 1991.95 621.423C1994.9 624.625 2000.53 627.7 2008.86 630.646C2017.19 633.593 2029.49 637.116 2045.76 641.215C2063.18 645.699 2077.01 650.695 2087.26 656.204C2097.51 661.585 2104.81 668.054 2109.17 675.613C2113.65 683.043 2115.9 692.074 2115.9 702.707C2115.9 723.205 2108.4 739.282 2093.41 750.94C2078.55 762.598 2057.99 768.427 2031.73 768.427Z" fill="#003474"/>
<path d="M2162.26 521.306V482.297H2202.42V521.306H2162.26ZM2162.26 762.854V555.319H2202.42V762.854H2162.26Z" fill="#003474"/>
<path d="M2405.78 762.854V660.816C2405.78 652.745 2405.08 644.482 2403.67 636.027C2402.39 627.444 2399.83 619.501 2395.98 612.199C2392.27 604.897 2386.95 599.004 2380.04 594.52C2373.25 590.036 2364.34 587.794 2353.32 587.794C2346.15 587.794 2339.36 589.011 2332.96 591.445C2326.55 593.751 2320.91 597.53 2316.04 602.783C2311.3 608.035 2307.53 614.953 2304.71 623.537C2302.02 632.12 2300.67 642.561 2300.67 654.859L2275.69 645.443C2275.69 626.611 2279.21 610.021 2286.26 595.673C2293.31 581.197 2303.43 569.923 2316.62 561.852C2329.82 553.781 2345.77 549.746 2364.47 549.746C2378.82 549.746 2390.86 552.052 2400.6 556.664C2410.33 561.276 2418.21 567.361 2424.23 574.919C2430.38 582.35 2435.06 590.485 2438.26 599.324C2441.46 608.163 2443.64 616.811 2444.79 625.266C2445.95 633.721 2446.52 641.151 2446.52 647.557V762.854H2405.78ZM2259.93 762.854V555.319H2295.87V615.274H2300.67V762.854H2259.93Z" fill="#003474"/>
<path d="M2582.09 860.857C2570.94 860.857 2560.12 859.128 2549.61 855.669C2539.24 852.21 2529.76 847.086 2521.17 840.296C2512.59 833.634 2505.48 825.371 2499.84 815.507L2536.93 796.675C2541.41 805.514 2547.82 811.984 2556.15 816.083C2564.47 820.183 2573.25 822.233 2582.47 822.233C2593.87 822.233 2603.61 820.183 2611.68 816.083C2619.75 812.112 2625.84 806.091 2629.94 798.02C2634.16 789.949 2636.21 779.957 2636.09 768.043V710.01H2640.89V555.319H2676.44V768.427C2676.44 773.936 2676.25 779.188 2675.86 784.184C2675.48 789.181 2674.77 794.177 2673.75 799.173C2670.8 813.137 2665.17 824.667 2656.84 833.762C2648.64 842.858 2638.14 849.648 2625.32 854.132C2612.64 858.615 2598.23 860.857 2582.09 860.857ZM2579.01 768.619C2559.67 768.619 2542.95 763.815 2528.86 754.207C2514.9 744.599 2504.07 731.532 2496.38 715.006C2488.83 698.352 2485.05 679.648 2485.05 658.894C2485.05 638.013 2488.89 619.373 2496.58 602.975C2504.26 586.449 2515.15 573.446 2529.24 563.966C2543.46 554.358 2560.31 549.554 2579.78 549.554C2599.38 549.554 2615.84 554.358 2629.17 563.966C2642.62 573.446 2652.74 586.449 2659.53 602.975C2666.45 619.501 2669.91 638.141 2669.91 658.894C2669.91 679.648 2666.45 698.288 2659.53 714.814C2652.61 731.34 2642.43 744.471 2628.98 754.207C2615.52 763.815 2598.87 768.619 2579.01 768.619ZM2584.59 732.301C2597.78 732.301 2608.54 729.162 2616.87 722.885C2625.2 716.607 2631.28 707.96 2635.12 696.943C2638.97 685.925 2640.89 673.243 2640.89 658.894C2640.89 644.546 2638.9 631.864 2634.93 620.846C2631.09 609.829 2625.07 601.246 2616.87 595.096C2608.8 588.947 2598.49 585.873 2585.93 585.873C2572.61 585.873 2561.65 589.139 2553.07 595.673C2544.49 602.206 2538.08 610.982 2533.86 621.999C2529.76 633.017 2527.71 645.315 2527.71 658.894C2527.71 672.602 2529.76 685.029 2533.86 696.174C2538.08 707.191 2544.36 715.967 2552.69 722.5C2561.14 729.034 2571.78 732.301 2584.59 732.301Z" fill="#003474"/>
<path d="M130.765 510.834L261.53 819H0L130.765 510.834Z" fill="#2289FF"/>
<path d="M115.406 25.424C252.346 -42.1505 411.411 29.6195 470.689 185.727L700.848 791.85C563.908 859.424 404.842 787.654 345.564 631.547L115.406 25.424Z" fill="url(#paint0_linear_12_62)"/>
<path d="M554.718 25.424C691.658 -42.1505 850.724 29.6195 910.001 185.727L1140.16 791.85C1003.22 859.424 844.154 787.654 784.877 631.547L554.718 25.424Z" fill="#003474"/>
<defs>
<linearGradient id="paint0_linear_12_62" x1="570.08" y1="0" x2="570.08" y2="819" gradientUnits="userSpaceOnUse">
<stop stop-color="#2289FF"/>
<stop offset="1" stop-color="#003474"/>
</linearGradient>
</defs>
</svg>
